<svg xmlns="http://www.w3.org/2000/svg" width="1200" height="1500" viewBox="0 0 1200 1500">
  <defs>
    <linearGradient id="bg" x1="0" y1="0" x2="1" y2="1">
      <stop offset="0%" stop-color="#f7efe8"/>
      <stop offset="100%" stop-color="#e8d4c8"/>
    </linearGradient>
  </defs>
  <rect width="1200" height="1500" fill="url(#bg)"/>
  <ellipse cx="600" cy="650" rx="350" ry="180" fill="#f4e5da"/>
  <path d="M290 650 Q600 430 910 650" fill="none" stroke="#2b2523" stroke-width="18" stroke-linecap="round"/>
  <path d="M345 650 Q600 510 855 650" fill="none" stroke="#5b4943" stroke-width="8" stroke-linecap="round"/>
  <g stroke="#2b2523" stroke-width="9" stroke-linecap="round">
    <path d="M360 625 L325 560"/><path d="M405 595 L382 530"/><path d="M455 575 L445 505"/>
    <path d="M510 560 L510 490"/><path d="M570 552 L580 482"/><path d="M630 552 L620 482"/>
    <path d="M690 560 L690 490"/><path d="M745 575 L755 505"/><path d="M795 595 L818 530"/>
    <path d="M840 625 L875 560"/>
  </g>
  <text x="600" y="1080" text-anchor="middle" font-size="84" font-family="Arial, Helvetica, sans-serif" font-weight="700" fill="#1d1715">CLASSIC</text>
  <text x="600" y="1160" text-anchor="middle" font-size="34" font-family="Arial, Helvetica, sans-serif" fill="#57443d">Replace with real model photo</text>
</svg>