<svg xmlns="http://www.w3.org/2000/svg" width="1200" height="1500" viewBox="0 0 1200 1500">
<defs>
  <linearGradient id="g" x1="0" y1="0" x2="1" y2="1">
    <stop offset="0%" stop-color="#f7ede7"/>
    <stop offset="100%" stop-color="#ffffff"/>
  </linearGradient>
</defs>
<rect width="1200" height="1500" fill="url(#g)"/>
<ellipse cx="820" cy="320" rx="300" ry="230" fill="#b6a08f" opacity="0.16"/>
<ellipse cx="360" cy="1170" rx="280" ry="190" fill="#b6a08f" opacity="0.12"/>
<path d="M250 760 C420 620, 780 620, 950 760" stroke="#1f1a17" stroke-width="14" fill="none" opacity="0.82" stroke-linecap="round"/>
<path d="M280 760 C420 700, 780 700, 920 760" stroke="#1f1a17" stroke-width="8" fill="none" opacity="0.35" stroke-linecap="round"/>
<g stroke="#1f1a17" stroke-width="8" stroke-linecap="round" opacity="0.8">
  <path d="M360 735 L320 660"/>
  <path d="M430 715 L405 635"/>
  <path d="M510 702 L500 622"/>
  <path d="M600 698 L600 620"/>
  <path d="M690 702 L700 622"/>
  <path d="M770 715 L795 635"/>
  <path d="M840 735 L880 660"/>
</g>
<text x="100" y="1180" fill="#1f1a17" font-family="Arial, Helvetica, sans-serif" font-size="72" font-weight="700">Refill</text>
<text x="100" y="1260" fill="#6c5547" font-family="Arial, Helvetica, sans-serif" font-size="54">تعبئة</text>
<text x="100" y="1345" fill="#8d7668" font-family="Arial, Helvetica, sans-serif" font-size="32">Replace with approved realistic model photo if desired</text>
</svg>